<svg xmlns="http://www.w3.org/2000/svg" viewBox="0 0 16 16">
    <g fill="#395573" fill-rule="evenodd">
        <path fill-rule="nonzero" d="M10.985 1.71c.724-.834 1.988-.923 2.821-.198l1.51 1.312c.833.725.922 1.988.197 2.822l-7.545 8.679c-.18.208-.497.23-.705.05l-.126-.11L5.9 15.286c-.188.156-.462.152-.646-.008l-2.38-2.069c-.184-.16-.226-.43-.098-.639l.839-1.367-.126-.109c-.208-.181-.23-.497-.049-.705l7.545-8.68zm-5.052 8.858l1.51 1.312 6.56-7.546-1.509-1.312-6.561 7.546z" transform="translate(0 -1)"/>
        <path d="M3.45 16.857l1.128-1.104-2.094-1.822-1.825 2.254c-.174.215-.14.53.074.704.09.072.2.111.315.111H3.1c.131 0 .257-.051.35-.143z" transform="translate(0 -1)"/>
    </g>
</svg>
